<svg width="1200" height="630" viewBox="0 0 1200 630" fill="none" xmlns="http://www.w3.org/2000/svg" role="img" aria-labelledby="title desc">
<title id="title">TubeClick Pro Viral Growth Pass</title><desc id="desc">A dark purple and cyan referral banner for TubeClick Pro.</desc>
<rect width="1200" height="630" rx="36" fill="#090914"/><path d="M0 540L420 120L690 390L930 64L1200 284V630H0V540Z" fill="url(#g)" opacity=".35"/><g opacity=".18" stroke="#7C3AED"><path d="M0 80H1200M0 160H1200M0 240H1200M0 320H1200M0 400H1200M0 480H1200M100 0V630M240 0V630M380 0V630M520 0V630M660 0V630M800 0V630M940 0V630M1080 0V630"/></g>
<circle cx="946" cy="315" r="166" fill="#22D3EE" opacity=".14"/><circle cx="946" cy="315" r="117" stroke="#22D3EE" stroke-width="3"/><path d="M930 205L842 333H926L904 425L1052 282H966L1004 205H930Z" fill="#A855F7" stroke="#E9D5FF" stroke-width="6" stroke-linejoin="round"/>
<text x="82" y="185" fill="#A855F7" font-family="Arial, sans-serif" font-size="28" font-weight="700" letter-spacing="7">TUBECLICK PRO</text><text x="82" y="282" fill="white" font-family="Arial, sans-serif" font-size="70" font-weight="800">VIRAL GROWTH</text><text x="82" y="357" fill="#22D3EE" font-family="Arial, sans-serif" font-size="70" font-weight="800">PASS</text><text x="85" y="432" fill="#B8B8C9" font-family="Arial, sans-serif" font-size="28">Invite creators. Unlock Pro. Build momentum.</text><rect x="82" y="480" width="300" height="58" rx="29" fill="#7C3AED"/><text x="120" y="518" fill="white" font-family="Arial, sans-serif" font-size="23" font-weight="700">JOIN THE INTEL LOOP</text><defs><linearGradient id="g" x1="100" y1="80" x2="1100" y2="550" gradientUnits="userSpaceOnUse"><stop stop-color="#7C3AED"/><stop offset="1" stop-color="#22D3EE"/></linearGradient></defs>
</svg>
